# File created by Blade
# Date/Time:  Tue Jan 27 19:32:37 2015
# Frame Rate: 120.000 fps
#------------------------------------------------------
:FULLY-SPECIFIED
:DEGREES
2346
root 3.785051 32.192432 -0.284916 -6.077390 -0.602448 -0.198736
Spine 2.977774 2.670067 -0.708825
Head 31.259170 -52.909946 -10.105846
LeftShoulder -3.345920 -6.811150 26.667410
LeftArm 1.294479 41.559120 -96.554488
LeftForeArm 2.482170 -0.000000 12.223020
LeftHand 10.135145 -0.000000 -4.899813
LeftHandThumb1 -26.253704 0.000000 33.147579
RightShoulder -11.409712 -7.257110 -27.701118
RightArm 0.146657 50.516698 67.879122
RightForeArm -5.277619 -0.000000 34.691187
RightHand 27.418596 -0.000000 -28.772181
RightHandThumb1 -24.326973 -0.000000 -32.862282
LeftUpLeg 12.469274 2.547083 -1.197356
LeftLeg 2.686043 -0.000000 -0.000000
LeftFoot -21.847106 17.784727 -23.200316
LeftToeBase 16.057073 -0.000000 -0.000000
RightUpLeg 11.056582 -8.447086 1.028517
RightLeg 1.006530 -0.000000 -0.000000
RightFoot -13.433421 -12.600244 14.439573
RightToeBase 11.869311 -0.000000 -0.000000
2347
root 3.785338 32.192706 -0.285577 -6.080794 -0.589255 -0.199274
Spine 2.977336 2.652670 -0.715566
Head 31.210742 -52.883294 -10.094027
LeftShoulder -3.354566 -6.823339 26.664190
LeftArm 1.278547 41.559320 -96.570660
LeftForeArm 2.411508 -0.000000 12.230644
LeftHand 10.120648 -0.000000 -4.840798
LeftHandThumb1 -26.253704 0.000000 33.147579
RightShoulder -11.407139 -7.243843 -27.689063
RightArm 0.237935 50.752092 67.879496
RightForeArm -5.512505 -0.000000 34.962579
RightHand 27.354717 -0.000000 -28.633279
RightHandThumb1 -24.326973 -0.000000 -32.862282
LeftUpLeg 12.472431 2.567153 -1.190478
LeftLeg 2.678834 -0.000000 -0.000000
LeftFoot -21.845992 17.785174 -23.158574
LeftToeBase 16.227153 -0.000000 -0.000000
RightUpLeg 11.063351 -8.464117 1.026022
RightLeg 1.000610 -0.000000 -0.000000
RightFoot -13.422291 -12.604059 14.426782
RightToeBase 11.865439 -0.000000 -0.000000
2348
root 3.785744 32.192783 -0.287009 -6.079457 -0.577790 -0.202178
Spine 2.974488 2.637717 -0.714863
Head 31.156228 -52.843118 -10.079838
LeftShoulder -3.372570 -6.816981 26.663091
LeftArm 1.292548 41.541004 -96.577511
LeftForeArm 2.460668 -0.000000 12.232594
LeftHand 10.103303 -0.000000 -4.868923
LeftHandThumb1 -26.253704 0.000000 33.147579
RightShoulder -11.413407 -7.240096 -27.696114
RightArm 0.267467 50.702526 67.823887
RightForeArm -5.490250 -0.000000 35.269429
RightHand 27.324025 -0.000000 -28.894342
RightHandThumb1 -24.326973 -0.000000 -32.862282
LeftUpLeg 12.471771 2.573179 -1.186596
LeftLeg 2.669701 -0.000000 -0.000000
LeftFoot -21.835011 17.787789 -23.138259
LeftToeBase 16.228529 -0.000000 -0.000000
RightUpLeg 11.062512 -8.475241 1.027501
RightLeg 0.997807 -0.000000 -0.000000
RightFoot -13.416970 -12.602798 14.410036
RightToeBase 11.881879 -0.000000 -0.000000
2349
root 3.786197 32.193018 -0.288032 -6.077574 -0.569664 -0.202317
Spine 2.970313 2.642944 -0.720786
Head 31.113986 -52.826103 -10.070455
LeftShoulder -3.374520 -6.825521 26.658806
LeftArm 1.277267 41.553495 -96.601017
LeftForeArm 2.372732 -0.000000 12.265251
LeftHand 10.082348 0.000000 -4.777116
LeftHandThumb1 -26.253704 0.000000 33.147579
RightShoulder -11.414474 -7.244821 -27.689246
RightArm 0.260263 50.830499 67.767750
RightForeArm -5.550409 -0.000000 35.702734
RightHand 27.382530 -0.000000 -28.669987
RightHandThumb1 -24.326973 -0.000000 -32.862282
LeftUpLeg 12.466689 2.568573 -1.187895
LeftLeg 2.669513 -0.000000 -0.000000
LeftFoot -21.835094 17.775301 -23.161441
LeftToeBase 16.239690 -0.000000 -0.000000
RightUpLeg 11.064113 -8.471592 1.028120
RightLeg 0.987461 -0.000000 -0.000000
RightFoot -13.415074 -12.607007 14.432759
RightToeBase 11.863159 -0.000000 -0.000000
2350
root 3.786349 32.193555 -0.289031 -6.072318 -0.560756 -0.202679
Spine 2.959884 2.645285 -0.726841
Head 31.082940 -52.811815 -10.077641
LeftShoulder -3.388001 -6.809473 26.661890
LeftArm 1.291507 41.549905 -96.609762
LeftForeArm 2.301226 -0.000000 12.307246
LeftHand 10.017102 -0.000000 -5.064792
LeftHandThumb1 -26.253704 0.000000 33.147579
RightShoulder -11.412388 -7.255098 -27.681338
RightArm 0.268835 50.927246 67.732380
RightForeArm -5.741588 -0.000000 36.152753
RightHand 27.127031 0.000000 -28.513735
RightHandThumb1 -24.326973 -0.000000 -32.862282
LeftUpLeg 12.464303 2.555459 -1.190059
LeftLeg 2.655085 -0.000000 -0.000000
LeftFoot -21.831194 17.793523 -23.150552
LeftToeBase 16.242426 -0.000000 -0.000000
RightUpLeg 11.059287 -8.481361 1.027933
RightLeg 0.982977 -0.000000 -0.000000
RightFoot -13.403269 -12.610398 14.432999
RightToeBase 11.842866 -0.000000 -0.000000
2351
root 3.785344 32.194078 -0.291257 -6.064779 -0.558218 -0.203647
Spine 2.955453 2.659787 -0.739380
Head 31.010128 -52.796698 -10.029947
LeftShoulder -3.410256 -6.821938 26.658162
LeftArm 1.283733 41.546511 -96.632482
LeftForeArm 2.341679 -0.000000 12.330132
LeftHand 10.036299 -0.000000 -4.800224
LeftHandThumb1 -26.253704 0.000000 33.147579
RightShoulder -11.409423 -7.229126 -27.640801
RightArm 0.225200 51.205820 67.667042
RightForeArm -5.869377 -0.000000 36.701076
RightHand 27.192939 -0.000000 -28.348955
RightHandThumb1 -24.326973 -0.000000 -32.862282
LeftUpLeg 12.452357 2.563085 -1.185234
LeftLeg 2.657668 -0.000000 -0.000000
LeftFoot -21.825181 17.775683 -23.151513
LeftToeBase 16.298430 -0.000000 -0.000000
RightUpLeg 11.046071 -8.477049 1.033742
RightLeg 0.987770 -0.000000 -0.000000
RightFoot -13.408978 -12.620567 14.441923
RightToeBase 11.884491 -0.000000 -0.000000
2352
root 3.785108 32.194391 -0.291824 -6.062435 -0.557540 -0.204144
Spine 2.951212 2.673751 -0.746009
Head 30.952782 -52.768614 -10.007563
LeftShoulder -3.430226 -6.805367 26.661116
LeftArm 1.287538 41.554186 -96.649945
LeftForeArm 2.244048 -0.000000 12.395874
LeftHand 9.980099 -0.000000 -5.003020
LeftHandThumb1 -26.253704 0.000000 33.147579
RightShoulder -11.412122 -7.237524 -27.610548
RightArm 0.200609 51.355258 67.617704
RightForeArm -5.889814 -0.000000 37.308576
RightHand 27.174731 -0.000000 -28.439515
RightHandThumb1 -24.326973 -0.000000 -32.862282
LeftUpLeg 12.452265 2.573969 -1.183373
LeftLeg 2.647165 -0.000000 -0.000000
LeftFoot -21.801443 17.784492 -23.138971
LeftToeBase 16.221087 -0.000000 -0.000000
RightUpLeg 11.050942 -8.485826 1.032639
RightLeg 0.968628 -0.000000 -0.000000
RightFoot -13.387927 -12.610023 14.440451
RightToeBase 11.832355 -0.000000 -0.000000
2353
root 3.782727 32.194825 -0.293861 -6.052980 -0.550864 -0.210621
Spine 2.940924 2.694694 -0.754761
Head 30.884874 -52.740042 -9.967102
LeftShoulder -3.429480 -6.813749 26.648375
LeftArm 1.270178 41.539046 -96.673664
LeftForeArm 2.231913 -0.000000 12.427112
LeftHand 10.068059 -0.000000 -4.679321
LeftHandThumb1 -26.253704 0.000000 33.147579
RightShoulder -11.415977 -7.264732 -27.570952
RightArm 0.181888 51.589416 67.606039
RightForeArm -5.885099 -0.000000 38.019356
RightHand 27.165846 -0.000000 -28.458752
RightHandThumb1 -24.326973 -0.000000 -32.862282
LeftUpLeg 12.443705 2.539386 -1.180624
LeftLeg 2.637074 -0.000000 -0.000000
LeftFoot -21.810160 17.812737 -23.139758
LeftToeBase 16.219366 -0.000000 -0.000000
RightUpLeg 11.037381 -8.477602 1.048576
RightLeg 0.970445 -0.000000 -0.000000
RightFoot -13.378738 -12.639219 14.435182
RightToeBase 11.848573 -0.000000 -0.000000
2354
root 3.782202 32.195208 -0.296215 -6.050010 -0.551719 -0.207118
Spine 2.943114 2.721791 -0.771655
Head 30.800334 -52.720215 -9.909427
LeftShoulder -3.445320 -6.792710 26.661412
LeftArm 1.289739 41.502706 -96.698475
LeftForeArm 2.180915 -0.000000 12.480031
LeftHand 10.028633 -0.000000 -4.919656
LeftHandThumb1 -26.253704 0.000000 33.147579
RightShoulder -11.410608 -7.206924 -27.521371
RightArm 0.047221 51.887354 67.483793
RightForeArm -5.950956 -0.000000 38.763008
RightHand 27.102832 0.000000 -28.409170
RightHandThumb1 -24.326973 -0.000000 -32.862282
LeftUpLeg 12.430805 2.549626 -1.180732
LeftLeg 2.648801 -0.000000 -0.000000
LeftFoot -21.804614 17.792873 -23.157638
LeftToeBase 16.199332 -0.000000 -0.000000
RightUpLeg 11.029811 -8.480601 1.045465
RightLeg 0.972817 -0.000000 -0.000000
RightFoot -13.373048 -12.627312 14.423476
RightToeBase 11.852058 -0.000000 -0.000000
2355
root 3.779367 32.195146 -0.299662 -6.032137 -0.552925 -0.210185
Spine 2.929175 2.750225 -0.789549
Head 30.711918 -52.691700 -9.838048
LeftShoulder -3.449546 -6.803203 26.658185
LeftArm 1.267493 41.482257 -96.729375
LeftForeArm 2.210739 -0.000000 12.517759
LeftHand 10.159760 -0.000000 -4.664343
LeftHandThumb1 -26.253704 0.000000 33.147579
RightShoulder -11.411597 -7.201673 -27.466517
RightArm -0.010954 52.208913 67.445467
RightForeArm -5.976448 -0.000000 39.565788
RightHand 27.056382 -0.000000 -28.453078
RightHandThumb1 -24.326973 -0.000000 -32.862282
LeftUpLeg 12.407917 2.546967 -1.173101
LeftLeg 2.646247 -0.000000 -0.000000
LeftFoot -21.787780 17.797671 -23.136665
LeftToeBase 16.206982 -0.000000 -0.000000
RightUpLeg 11.004527 -8.452969 1.060131
RightLeg 0.974758 -0.000000 -0.000000
RightFoot -13.386360 -12.632389 14.462767
RightToeBase 11.884593 -0.000000 -0.000000
2356
root 3.777794 32.195328 -0.300434 -6.031846 -0.547781 -0.211732
Spine 2.929338 2.763052 -0.805187
Head 30.636161 -52.662105 -9.788870
LeftShoulder -3.464183 -6.794070 26.663004
LeftArm 1.258876 41.453225 -96.768472
LeftForeArm 2.193157 0.000000 12.559539
LeftHand 10.195282 -0.000000 -4.643342
LeftHandThumb1 -26.253704 0.000000 33.147579
RightShoulder -11.406295 -7.204496 -27.426313
RightArm -0.071639 52.493868 67.396082
RightForeArm -6.007157 -0.000000 40.377116
RightHand 27.067393 0.000000 -28.659357
RightHandThumb1 -24.326973 -0.000000 -32.862282
LeftUpLeg 12.407436 2.542056 -1.169791
LeftLeg 2.641233 -0.000000 -0.000000
LeftFoot -21.800317 17.795403 -23.163871
LeftToeBase 16.221465 -0.000000 -0.000000
RightUpLeg 11.001388 -8.479802 1.063127
RightLeg 0.977370 -0.000000 -0.000000
RightFoot -13.372377 -12.639491 14.422770
RightToeBase 11.838037 -0.000000 -0.000000
2357
root 3.775845 32.195376 -0.301045 -6.031008 -0.550634 -0.211530
Spine 2.928761 2.779629 -0.819131
Head 30.558447 -52.631214 -9.746676
LeftShoulder -3.487399 -6.796015 26.667068
LeftArm 1.234101 41.430523 -96.811176
LeftForeArm 2.281290 0.000000 12.603787
LeftHand 10.243324 -0.000000 -4.728730
LeftHandThumb1 -26.253704 0.000000 33.147579
RightShoulder -11.406109 -7.195414 -27.378467
RightArm -0.116565 52.761663 67.342860
RightForeArm -6.109897 -0.000000 41.206000
RightHand 26.910920 -0.000000 -28.439075
RightHandThumb1 -24.326973 -0.000000 -32.862282
LeftUpLeg 12.409374 2.552813 -1.162760
LeftLeg 2.635015 -0.000000 -0.000000
LeftFoot -21.795082 17.788704 -23.164084
LeftToeBase 16.193337 -0.000000 -0.000000
RightUpLeg 11.002182 -8.488255 1.066106
RightLeg 0.969723 -0.000000 -0.000000
RightFoot -13.363223 -12.632605 14.407412
RightToeBase 11.838323 -0.000000 -0.000000
2358
root 3.773886 32.195332 -0.302532 -6.028587 -0.567453 -0.207956
Spine 2.928550 2.818334 -0.841628
Head 30.476896 -52.610685 -9.686317
LeftShoulder -3.498086 -6.784843 26.676080
LeftArm 1.226085 41.422526 -96.853842
LeftForeArm 2.259140 -0.000000 12.652066
LeftHand 10.213952 0.000000 -4.707813
LeftHandThumb1 -26.253704 0.000000 33.147579
RightShoulder -11.411779 -7.192428 -27.319172
RightArm -0.166758 53.013142 67.267489
RightForeArm -6.123961 0.000000 42.060109
RightHand 26.823639 -0.000000 -28.471214
RightHandThumb1 -24.326973 -0.000000 -32.862282
LeftUpLeg 12.411315 2.573083 -1.163123
LeftLeg 2.623149 -0.000000 -0.000000
LeftFoot -21.788268 17.810657 -23.146915
LeftToeBase 16.240406 -0.000000 -0.000000
RightUpLeg 10.990024 -8.473838 1.068084
RightLeg 0.980437 -0.000000 -0.000000
RightFoot -13.367517 -12.626601 14.411493
RightToeBase 11.809028 -0.000000 -0.000000
